{"title":"The Gazette - Cassis vob","uid":7338371,"size":515891200,"categoryP":"video","categoryS":"music_videos","magnet":"?xt=urn:btih:abe53c3003d35f9c2abf77a3b1c1704f9ead6196&amp;dn=The+Gazette+-+Cassis+vob&amp;tr=udp%3A%2F%2Ftracker.openbittorrent.com%3A80&amp;tr=udp%3A%2F%2Fopen.demonii.com%3A1337&amp;tr=udp%3A%2F%2Ftracker.coppersurfer.tk%3A6969&amp;tr=udp%3A%2F%2Fexodus.desync.com%3A6969","seeders":1,"leechers":0,"uploader":"ichigo99","files":1,"time":1339147373,"description":"Enjoy and happy seeding :)\n\n\nFormat                                   : MPEG-PS\nFile size                                : 492 MiB\nDuration                                 : 7mn 4s\nOverall bit rate mode                    : Variable\nOverall bit rate                         : 9 724 Kbps\n\nVideo\nID                                       : 224 (0xE0)\nFormat                                   : MPEG Video\nFormat version                           : Version 2\nFormat profile                           : Main@Main\nFormat settings, BVOP                    : Yes\nFormat settings, Matrix                  : Custom\nFormat settings, GOP                     : M=2, N=15\nDuration                                 : 7mn 4s\nBit rate mode                            : Variable\nBit rate                                 : 7 995 Kbps\nMaximum bit rate                         : 9 800 Kbps\nWidth                                    : 720 pixels\nHeight                                   : 480 pixels\nDisplay aspect ratio                     : 4:3\nFrame rate                               : 29.970 fps\nStandard                                 : NTSC\nColor space                              : YUV\nChroma subsampling                       : 4:2:0\nBit depth                                : 8 bits\nScan type                                : Interlaced\nScan order                               : Top Field First\nCompression mode                         : Lossy\nBits/(Pixel*Frame)                       : 0.772\nStream size                              : 404 MiB (82%)\n\nAudio\nID                                       : 189 (0xBD)-160 (0xA0)\nFormat                                   : PCM\nFormat settings, Endianness              : Big\nFormat settings, Sign                    : Signed\nMuxing mode                              : DVD-Video\nDuration                                 : 7mn 4s\nBit rate mode                            : Constant\nBit rate                                 : 1 536 Kbps\nChannel(s)                               : 2 channels\nSampling rate                            : 48.0 KHz\nBit depth                                : 16 bits\nStream size                              : 77.7 MiB (16%)\n\n\nside note: If you're looking for cassis in flac here is your chance. Find a program to extract the audio to flac there you have it. Cheers :) ","torrent":{"xt":"urn:btih:abe53c3003d35f9c2abf77a3b1c1704f9ead6196","amp;dn":"The+Gazette+-+Cassis+vob","amp;tr":["udp%3A%2F%2Ftracker.openbittorrent.com%3A80","udp%3A%2F%2Fopen.demonii.com%3A1337","udp%3A%2F%2Ftracker.coppersurfer.tk%3A6969","udp%3A%2F%2Fexodus.desync.com%3A6969"],"infoHash":"abe53c3003d35f9c2abf77a3b1c1704f9ead6196","infoHashBuffer":{"type":"Buffer","data":[171,229,60,48,3,211,95,156,42,191,119,163,177,193,112,79,158,173,97,150]},"announce":[],"urlList":[]}}